<svg width="14" height="14" viewBox="0 0 14 14" fill="none" xmlns="http://www.w3.org/2000/svg">
<path fill-rule="evenodd" clip-rule="evenodd" d="M0 0.7C0 0.313401 0.313401 0 0.7 0H13.3C13.6866 0 14 0.313401 14 0.7C14 1.0866 13.6866 1.4 13.3 1.4H0.7C0.313401 1.4 0 1.0866 0 0.7Z" fill="#FAFAFA"/>
<path fill-rule="evenodd" clip-rule="evenodd" d="M0 6.7C0 6.3134 0.313401 6 0.7 6H13.3C13.6866 6 14 6.3134 14 6.7C14 7.0866 13.6866 7.4 13.3 7.4H0.7C0.313401 7.4 0 7.0866 0 6.7Z" fill="#FAFAFA"/>
<path fill-rule="evenodd" clip-rule="evenodd" d="M0 12.7C0 12.3134 0.313401 12 0.7 12H13.3C13.6866 12 14 12.3134 14 12.7C14 13.0866 13.6866 13.4 13.3 13.4H0.7C0.313401 13.4 0 13.0866 0 12.7Z" fill="#FAFAFA"/>
</svg>
